<svg width="24.000000" height="24.000000" viewBox="0 0 24 24" fill="none" xmlns="http://www.w3.org/2000/svg" xmlns:xlink="http://www.w3.org/1999/xlink">
	<desc>
			Created with Pixso.
	</desc>
	<defs>
		<clipPath id="clip16_381">
			<rect id="Dribbble Logo 1" width="24.000000" height="24.000000" fill="white" fill-opacity="0"/>
		</clipPath>
	</defs>
	<rect id="Dribbble Logo 1" width="24.000000" height="24.000000" fill="#FFFFFF" fill-opacity="0"/>
	<g clip-path="url(#clip16_381)">
		<path id="Vector" d="M12 22C6.48596 22 2 17.5137 2 12C2 6.48633 6.48596 2 12 2C17.514 2 22 6.48633 22 12C22 17.5137 17.514 22 12 22ZM20.4335 13.3691C20.1413 13.2764 17.7897 12.5752 15.113 13.0039C16.2302 16.0732 16.6848 18.5742 16.7723 19.0938C18.6887 17.7979 20.0528 15.7451 20.4335 13.3691ZM15.3365 19.876C15.2094 19.126 14.7135 16.5146 13.5143 13.3984C13.4955 13.4053 13.4768 13.4111 13.458 13.417C8.64026 15.0967 6.91083 18.4375 6.75714 18.752C7.95697 19.6865 9.38513 20.2842 10.8937 20.4824C12.4022 20.6797 13.9361 20.4707 15.3365 19.876ZM5.6543 17.7246C5.84778 17.3926 8.19196 13.5117 12.5972 12.0879C12.7085 12.0518 12.8207 12.0176 12.9337 11.9863C12.7193 11.501 12.4858 11.0146 12.2413 10.5361C7.97571 11.8135 3.83655 11.7598 3.46283 11.752C3.46021 11.8389 3.45844 11.9258 3.45844 12.0127C3.45679 14.123 4.23938 16.1592 5.6543 17.7246ZM3.63885 10.2637C4.02087 10.2686 7.5401 10.2842 11.5354 9.22266C10.1202 6.70703 8.59375 4.5918 8.36859 4.2832C5.97906 5.41016 4.19275 7.61328 3.63885 10.2637ZM9.99835 3.70898C10.2345 4.02539 11.7858 6.1377 13.1855 8.70898C16.2227 7.57031 17.5086 5.84277 17.6622 5.62402C16.6338 4.70996 15.3997 4.05957 14.0653 3.72559C12.7308 3.39258 11.3356 3.38672 9.99835 3.70898ZM18.6117 6.61133C18.4316 6.85547 17.0004 8.69043 13.8422 9.97949C14.0409 10.3867 14.2315 10.7998 14.4089 11.2168C14.4717 11.3643 14.5331 11.5107 14.5929 11.6572C17.435 11.2998 20.2589 11.873 20.5405 11.9326C20.5242 9.99023 19.8435 8.1123 18.6117 6.61133Z" fill="#E94B88" fill-opacity="1.000000" fill-rule="evenodd"/>
	</g>
</svg>
