<svg width="31.999329" height="31.998901" viewBox="0 0 31.9993 31.9989" fill="none" xmlns="http://www.w3.org/2000/svg" xmlns:xlink="http://www.w3.org/1999/xlink">
	<desc>
			Created with Pixso.
	</desc>
	<defs/>
	<path id="Vector" d="M17.2211 1.20007L30.799 14.7781L31.9993 13.5779L18.4214 0L17.2211 1.20007Z" fill="#5221E6" fill-opacity="1.000000" fill-rule="nonzero"/>
	<path id="Vector" d="M19.2336 7.60144C18.4975 6.86536 17.3874 6.65161 16.4305 7.06165L7.00714 11.1002C5.8941 11.5773 5.03595 12.506 4.65549 13.6598C3.76245 16.3683 2.60707 19.947 1.67427 23.0061C1.20815 24.5348 0.795624 25.9403 0.498917 27.0448C0.350754 27.5964 0.22937 28.0808 0.144394 28.4717C0.0652618 28.8359 0 29.1946 0 29.453L0 29.8046L2.19437 31.9989L2.54585 31.9989C2.80447 31.9989 3.16312 31.9337 3.52722 31.8546C3.9182 31.7695 4.40256 31.6482 4.95418 31.5001C6.05878 31.2034 7.46417 30.7908 8.99286 30.3247C12.052 29.392 15.6306 28.2365 18.3392 27.3435C19.493 26.963 20.4217 26.1049 20.8988 24.9918L24.9373 15.5684C25.3474 14.6116 25.1335 13.5015 24.3975 12.7654L19.2336 7.60144ZM17.0992 8.6217C17.4181 8.48499 17.7881 8.55627 18.0335 8.80164L23.1974 13.9655C23.4428 14.2108 23.5141 14.5809 23.3773 14.8998L19.3387 24.3232C19.0518 24.9926 18.4955 25.5048 17.8076 25.7314C15.1052 26.6226 11.5399 27.7736 8.49783 28.7012C6.97594 29.1654 5.59146 29.5715 4.51389 29.8608C3.97444 30.0059 3.51965 30.1194 3.16676 30.196C3.09215 30.2122 3.02327 30.2267 2.9601 30.239L11.6316 21.5675C12.5779 22.0197 13.7457 21.8536 14.5295 21.0698C15.5237 20.0756 15.5237 18.4637 14.5295 17.4695C13.5353 16.4752 11.9233 16.4752 10.9291 17.4695C10.1453 18.2533 9.9794 19.4211 10.4315 20.3674L1.7599 29.0389C1.77237 28.9757 1.78668 28.9069 1.8029 28.8322C1.87961 28.4794 1.99315 28.0244 2.13806 27.4851C2.42749 26.4075 2.83366 25.0231 3.29771 23.5011C4.22533 20.459 5.37634 16.8937 6.26738 14.1913C6.49416 13.5035 7.00635 12.9471 7.6757 12.6603L17.0992 8.6217Z" fill="#5221E6" fill-opacity="1.000000" fill-rule="evenodd"/>
</svg>
