<svg width="31.999268" height="31.998779" viewBox="0 0 31.9993 31.9988" fill="none" xmlns="http://www.w3.org/2000/svg" xmlns:xlink="http://www.w3.org/1999/xlink">
	<desc>
			Created with Pixso.
	</desc>
	<defs/>
	<path id="Vector" d="M17.2212 1.2002L30.7991 14.7781L31.9993 13.5779L18.4214 0L17.2212 1.2002Z" fill="#5221E6" fill-opacity="1.000000" fill-rule="nonzero"/>
	<path id="Vector" d="M19.2336 7.60156C18.4976 6.86523 17.3875 6.65161 16.4304 7.06152L7.00708 11.1003C5.89404 11.5771 5.03589 12.5061 4.65552 13.6599C3.76245 16.3684 2.60718 19.947 1.67432 23.0061C1.20825 24.5347 0.795654 25.9402 0.499023 27.0449C0.35083 27.5964 0.229248 28.0808 0.144287 28.4717C0.0651855 28.8359 0 29.1946 0 29.4531L0 29.8044L2.19434 31.9988L2.5459 31.9988C2.80444 31.9988 3.16309 31.9336 3.5271 31.8547C3.91821 31.7695 4.40259 31.6482 4.9541 31.5C6.05884 31.2034 7.46411 30.7908 8.99292 30.3247C12.052 29.3918 15.6306 28.2363 18.3391 27.3435C19.4929 26.9629 20.4216 26.105 20.8987 24.9919L24.9373 15.5684C25.3474 14.6116 25.1335 13.5015 24.3975 12.7654L19.2336 7.60156ZM17.0991 8.62158C17.418 8.48486 17.7881 8.55615 18.0334 8.80151L23.1973 13.9656C23.4429 14.2109 23.5142 14.5808 23.3772 14.8999L19.3386 24.3232C19.0518 24.9924 18.4956 25.5046 17.8076 25.7314C15.1052 26.6226 11.5398 27.7737 8.4978 28.7012C6.97583 29.1653 5.59155 29.5715 4.51392 29.8608C3.97437 30.0059 3.51953 30.1194 3.16675 30.196C3.09204 30.2122 3.02319 30.2266 2.96021 30.239L11.6316 21.5674C12.5779 22.0195 13.7456 21.8538 14.5295 21.0698C15.5237 20.0757 15.5237 18.4639 14.5295 17.4695C13.5352 16.4753 11.9233 16.4753 10.9292 17.4695C10.1453 18.2532 9.97949 19.4211 10.4314 20.3674L1.76001 29.0388C1.77246 28.9758 1.78662 28.9067 1.80298 28.8323C1.87964 28.4792 1.99316 28.0244 2.13818 27.4851C2.42749 26.4075 2.83374 25.0229 3.29761 23.5012C4.22534 20.459 5.37646 16.8936 6.26733 14.1914C6.49414 13.5034 7.00635 12.947 7.67578 12.6602L17.0991 8.62158Z" fill="#5221E6" fill-opacity="1.000000" fill-rule="evenodd"/>
</svg>
