<svg width="85.000000" height="30.000000" viewBox="0 0 85 30" fill="none" xmlns="http://www.w3.org/2000/svg" xmlns:xlink="http://www.w3.org/1999/xlink">
	<desc>
			Created with Pixso.
	</desc>
	<defs>
		<clipPath id="clip11779_7">
			<rect id="Frame 63" width="85.000000" height="30.000000" fill="white" fill-opacity="0"/>
		</clipPath>
	</defs>
	<rect id="Frame 63" width="85.000000" height="30.000000" fill="#FFFFFF" fill-opacity="0"/>
	<g clip-path="url(#clip11779_7)">
		<path id="Vector" d="M38.6427 14.1572C41.3291 13.2705 41.8166 11.0293 41.8101 9.20264C41.8049 6.41431 39.8245 4.00171 33.9617 4.00171L23.0195 4L23.0195 24.9568L33.9336 24.9568C39.8311 24.9568 42.0012 21.947 42.0012 18.9324C42.0012 15.282 38.6427 14.1572 38.6427 14.1572ZM28.2124 8.55933L35.5794 8.55933L35.6061 8.5647C36.4377 8.71118 37.0431 9.41406 37.0431 10.2385C37.0431 11.0823 36.3944 11.8765 35.5372 11.9929L28.2174 12.0039L28.2124 8.55933ZM35.225 20.0728L28.2124 20.0728L28.2124 16.5642L35.3968 16.5642L35.4137 16.5659C36.3075 16.6685 36.9845 17.407 36.9845 18.2847C36.9845 19.241 36.1832 20.0581 35.225 20.0728Z" fill="#8491A0" fill-opacity="1.000000" fill-rule="nonzero"/>
		<path id="Vector" d="M66.5039 4.00269L84.995 4.00269L84.9848 8.57666L71.6416 8.57666L71.6544 11.9546L83.6837 11.9546L83.6837 16.552L71.6544 16.552L71.6544 20.2073L84.9994 20.2073L84.9968 25L66.5039 25L66.5039 4.00269Z" fill="#8491A0" fill-opacity="1.000000" fill-rule="nonzero"/>
		<path id="Vector" d="M55.7485 4.03027L44.5664 4.03027L44.5664 24.9937L49.7013 24.9937L49.7013 16.512C49.7013 16.512 55.3554 16.5056 55.3564 16.5056C56.9759 16.5303 58.2354 17.8491 58.2354 19.4753L58.2354 24.9756L63.2616 24.9736L63.2515 18.2078C63.2515 15.0735 60.2056 14.1475 60.2056 14.1475C60.2056 14.1475 63.3197 13.2212 63.3197 9.51562C63.3197 4.98193 59.4002 4.03027 55.7485 4.03027ZM58.5513 10.5342C58.4591 11.2234 57.7659 11.9712 56.9004 11.9712L49.6837 11.9739L49.6837 8.61694L56.904 8.61694C57.7659 8.61694 58.4418 9.24854 58.5513 10.0769L58.5513 10.5342Z" fill="#8491A0" fill-opacity="1.000000" fill-rule="nonzero"/>
		<path id="Vector" d="M19.6896 19.928C19.6157 19.9299 12.6706 20.0635 10.273 19.8311C6.41089 19.4548 5.04327 16.6116 5.04327 14.2905C5.04327 11.397 7.02777 9.26733 10.1022 8.86743C11.5647 8.677 19.5627 8.76685 19.6472 8.76758L19.8154 8.76953L19.8324 4.00244L19.6625 4.00342L10.6104 4.02002C9.60272 4.0813 7.93195 4.18188 6.22101 4.87744C4.57751 5.62598 3.14709 6.77563 2.07904 8.20605C0.719666 10.0269 0 12.1877 0 14.4543C0 15.1672 0.0567017 15.8748 0.172607 16.554C0.824036 19.7322 2.92017 22.3623 5.9259 23.7773C6.9408 24.2209 8.50604 24.7537 11.6628 24.9294C11.6693 24.9294 13.3634 24.9648 13.3634 24.9648L19.674 24.9714L19.8407 24.9714L19.8585 19.926L19.6896 19.928Z" fill="#8491A0" fill-opacity="1.000000" fill-rule="nonzero"/>
	</g>
</svg>
