<svg width="85.000000" height="30.000000" viewBox="0 0 85 30" fill="none" xmlns="http://www.w3.org/2000/svg" xmlns:xlink="http://www.w3.org/1999/xlink">
	<desc>
			Created with Pixso.
	</desc>
	<defs>
		<clipPath id="clip11779_9">
			<rect id="Frame 64" width="85.000000" height="30.000000" fill="white" fill-opacity="0"/>
		</clipPath>
	</defs>
	<g clip-path="url(#clip11779_9)">
		<path id="Vector" d="M26.5125 14.0984C25.1276 18.312 21.7406 20.6865 17.1606 20.6865C11.4645 20.6865 7 16.1672 7 10.3818C7 4.67407 11.4645 0.000244141 16.9681 0.000244141C22.0865 0.000244141 27.0132 4.2146 26.9747 11.2246L10.31 11.2246C10.7331 15.3242 13.8891 17.7375 17.1606 17.7375C19.9701 17.7375 21.971 16.3967 23.0491 14.0984L26.5125 14.0984ZM23.3571 8.31348C22.5487 5.09497 19.8547 2.9502 16.9681 2.9502C14.2359 2.9502 11.3493 4.94263 10.5027 8.31348L23.3571 8.31348ZM38.4818 20.687C35.6338 20.687 33.1704 19.1548 31.7467 17.2395L31.7467 29L28.4752 29L28.4752 0.498291L31.6312 0.498291L31.6312 3.63916C33.017 1.64795 35.5565 0 38.4818 0C44.1773 0 48.3727 4.6355 48.3727 10.3057C48.3727 16.0522 44.1773 20.687 38.4818 20.687ZM38.4818 2.98877C34.8254 2.98877 31.7467 6.28345 31.7467 10.3057C31.7467 14.3657 34.8254 17.699 38.4818 17.699C42.1762 17.699 45.1012 14.3657 45.1012 10.3057C45.1012 6.28345 42.1762 2.98877 38.4818 2.98877ZM49.7967 0.498291L53.0684 0.498291L53.0684 20.2273L49.7967 20.2273L49.7967 0.498291ZM54.529 10.3938C54.529 4.63672 59.2236 0.00585938 65.1675 0.00585938C71.112 0.00585938 75.8072 4.63672 75.8072 10.3938C75.8072 16.1506 71.0687 20.6973 65.1675 20.6973C59.2672 20.6973 54.529 16.1506 54.529 10.3938ZM66.0656 3.14893C60.6502 2.67773 57.6381 6.78149 57.6381 11.5627C57.6381 16.3428 61.5968 20.2195 66.4778 20.2195C68.3051 20.2229 70.0894 19.6667 71.5885 18.6267L70.3629 15.5215C71.629 14.2085 72.3607 12.3938 72.3607 10.3896C72.3607 6.42725 69.5812 3.47827 66.0656 3.14893Z" fill="#8491A0" fill-opacity="1.000000" fill-rule="nonzero"/>
		<path id="Vector" d="M62.2136 12.3765L71.8648 20.1926L77 20.1926L67.5978 12.3765L62.2136 12.3765Z" fill="#8491A0" fill-opacity="1.000000" fill-rule="nonzero"/>
	</g>
</svg>
