<svg width="85.000000" height="30.000000" viewBox="0 0 85 30" fill="none" xmlns="http://www.w3.org/2000/svg" xmlns:xlink="http://www.w3.org/1999/xlink">
	<desc>
			Created with Pixso.
	</desc>
	<defs>
		<clipPath id="clip11779_11">
			<rect id="Frame 65" width="85.000000" height="30.000000" fill="white" fill-opacity="0"/>
		</clipPath>
	</defs>
	<g clip-path="url(#clip11779_11)">
		<path id="Vector" d="M55.7755 1L29.3338 1C29.2554 1 29.1796 1.02759 29.1195 1.07788C29.0594 1.12817 29.019 1.198 29.0052 1.27515C28.9914 1.35229 29.0052 1.43188 29.0442 1.49976C29.0832 1.56763 29.1448 1.61987 29.2183 1.64697L53.1344 9.47705C53.1618 9.48608 53.1914 9.48511 53.2181 9.47437C53.2449 9.46362 53.267 9.44409 53.2806 9.4187L56.8493 2.79883C56.9495 2.61304 56.9997 2.4043 56.9951 2.19312C56.9905 1.98218 56.9312 1.77588 56.823 1.59473C56.7148 1.41333 56.5613 1.26318 56.3778 1.15894C56.1942 1.05469 55.9866 1 55.7755 1Z" fill="#8491A0" fill-opacity="1.000000" fill-rule="nonzero"/>
		<path id="Vector" d="M29.0059 28.6785C29.0059 28.7505 29.0298 28.8201 29.074 28.877C29.1182 28.9336 29.1801 28.9741 29.2498 28.9917C29.3195 29.0093 29.3931 29.0032 29.459 28.9741C29.5248 28.9453 29.5791 28.8953 29.6133 28.8318L34.2136 20.3098C34.3181 20.1162 34.4731 19.9543 34.6621 19.8416C34.851 19.729 35.067 19.6694 35.287 19.6694L47.024 19.6694C47.2441 19.6694 47.4602 19.6099 47.6492 19.4971C47.8383 19.3843 47.9932 19.2222 48.0977 19.0286L51.6047 12.5259C51.6126 12.511 51.6166 12.4944 51.6163 12.4775C51.6159 12.4607 51.6112 12.4443 51.6026 12.4299C51.594 12.4155 51.5818 12.4036 51.5672 12.3953C51.5526 12.387 51.536 12.3826 51.5192 12.3826L30.2257 12.3826C29.9022 12.3826 29.5919 12.5112 29.3631 12.7397C29.1344 12.9688 29.0059 13.2791 29.0059 13.6025L29.0059 28.6785Z" fill="#8491A0" fill-opacity="1.000000" fill-rule="nonzero"/>
	</g>
</svg>
