<svg width="24.000000" height="24.000000" viewBox="0 0 24 24" fill="none" xmlns="http://www.w3.org/2000/svg" xmlns:xlink="http://www.w3.org/1999/xlink">
	<desc>
			Created with Pixso.
	</desc>
	<defs>
		<clipPath id="clip16_379">
			<rect id="LinkedIn 1" width="24.000000" height="24.000000" fill="white" fill-opacity="0"/>
		</clipPath>
	</defs>
	<rect id="LinkedIn 1" width="24.000000" height="24.000000" fill="#FFFFFF" fill-opacity="0"/>
	<g clip-path="url(#clip16_379)">
		<path id="Vector" d="M19.65 3L4.34998 3C3.63 3 3 3.54297 3 4.2666L3 19.7334C3 20.457 3.63 21 4.34998 21L19.65 21C20.37 21 21 20.457 21 19.7334L21 4.2666C21 3.63281 20.37 3 19.65 3ZM8.31 18.4668L5.60999 18.4668L5.60999 9.87402L8.31 9.87402L8.31 18.4668ZM6.96002 8.6084C6.06 8.6084 5.42999 7.88477 5.42999 7.07031C5.42999 6.25586 6.15002 5.53223 6.96002 5.53223C7.77002 5.53223 8.48999 6.25586 8.48999 7.07031C8.58002 7.97461 7.85999 8.6084 6.96002 8.6084ZM18.3 18.4668L15.6 18.4668L15.6 14.3066C15.6 13.3115 15.6 12.0449 14.25 12.0449C12.9 12.0449 12.63 13.1309 12.63 14.3066L12.63 18.5576L9.92999 18.5576L9.92999 9.96484L12.45 9.96484L12.45 11.1406C12.81 10.417 13.71 9.78418 14.97 9.78418C17.67 9.78418 18.21 11.5928 18.21 13.8545L18.21 18.4668L18.3 18.4668Z" fill="#0077B5" fill-opacity="1.000000" fill-rule="nonzero"/>
	</g>
</svg>
