<svg width="24.000000" height="24.000000" viewBox="0 0 24 24" fill="none" xmlns="http://www.w3.org/2000/svg" xmlns:xlink="http://www.w3.org/1999/xlink">
	<desc>
			Created with Pixso.
	</desc>
	<defs>
		<clipPath id="clip16_377">
			<rect id="Twitter Logo 1" width="24.000000" height="24.000000" fill="white" fill-opacity="0"/>
		</clipPath>
	</defs>
	<rect id="Twitter Logo 1" width="24.000000" height="24.000000" fill="#FFFFFF" fill-opacity="0"/>
	<g clip-path="url(#clip16_377)">
		<path id="Vector" d="M22 6.87207C21.3103 7.16797 20.5222 7.36426 19.6355 7.46289C20.4236 6.9707 21.1133 6.18262 21.4089 5.2959C20.6207 5.78809 19.734 6.08398 18.8473 6.28125C18.1576 5.49219 17.0739 5 15.8916 5C13.6256 5 11.8522 6.77344 11.8522 8.94043C11.8522 9.23633 11.8522 9.53223 11.9507 9.82715C8.60101 9.63086 5.64532 8.05469 3.57635 5.68945C3.18225 6.28125 2.98523 6.9707 2.98523 7.66016C2.98523 9.03906 3.67487 10.2217 4.75861 11.0098C4.06897 11.0098 3.47784 10.8125 2.88672 10.5176C2.88672 10.5176 2.88672 10.5176 2.88672 10.6162C2.88672 12.5859 4.26599 14.1621 6.13794 14.5566C5.84235 14.6553 5.4483 14.6553 5.0542 14.6553C4.75861 14.6553 4.56158 14.6553 4.26599 14.5566C4.75861 16.1328 6.23645 17.3154 8.00983 17.3154C6.63055 18.3994 4.85712 18.9902 2.98523 18.9902C2.68964 18.9902 2.29559 18.9902 2 18.8916C3.77338 20.0742 5.94086 20.665 8.20691 20.665C15.5961 20.665 19.734 14.5566 19.734 9.33496C19.734 9.1377 19.734 8.94043 19.734 8.84277C20.8177 8.34961 21.5074 7.66016 22 6.87207Z" fill="#26A7DE" fill-opacity="1.000000" fill-rule="evenodd"/>
	</g>
</svg>
