<svg width="32.000000" height="32.000000" viewBox="0 0 32 32" fill="none" xmlns="http://www.w3.org/2000/svg" xmlns:xlink="http://www.w3.org/1999/xlink">
	<desc>
			Created with Pixso.
	</desc>
	<defs/>
	<path id="Vector" d="M30.2222 23.1111L17.7778 23.1111L17.7778 30.2222L30.2222 30.2222L30.2222 23.1111ZM30.2222 1.77783L17.7778 1.77783L17.7778 16L30.2222 16L30.2222 1.77783ZM10.6667 16L1.77777 16L1.77777 30.2222L10.6667 30.2222L10.6667 16ZM10.6667 1.77783L1.77777 1.77783L1.77777 8.88892L10.6667 8.88892L10.6667 1.77783ZM17.7778 0C16.7959 0 16 0.795898 16 1.77783L16 16C16 16.9818 16.7959 17.7778 17.7778 17.7778L30.2222 17.7778C31.2041 17.7778 32 16.9818 32 16L32 1.77783C32 0.795898 31.2041 0 30.2222 0L17.7778 0ZM17.7778 21.3334C16.7959 21.3334 16 22.1293 16 23.1111L16 30.2222C16 31.2041 16.7959 32 17.7778 32L30.2222 32C31.2041 32 32 31.2041 32 30.2222L32 23.1111C32 22.1293 31.2041 21.3334 30.2222 21.3334L17.7778 21.3334ZM0 16C0 15.0182 0.795944 14.2222 1.77777 14.2222L10.6667 14.2222C11.6485 14.2222 12.4444 15.0182 12.4444 16L12.4444 30.2222C12.4444 31.2041 11.6485 32 10.6667 32L1.77777 32C0.795944 32 0 31.2041 0 30.2222L0 16ZM1.77777 0C0.795944 0 0 0.795898 0 1.77783L0 8.88892C0 9.87073 0.795944 10.6666 1.77777 10.6666L10.6667 10.6666C11.6485 10.6666 12.4444 9.87073 12.4444 8.88892L12.4444 1.77783C12.4444 0.795898 11.6485 0 10.6667 0L1.77777 0Z" fill="#5221E6" fill-opacity="1.000000" fill-rule="evenodd"/>
</svg>
