<svg width="20.000000" height="20.000000" viewBox="0 0 20 20" fill="none" xmlns="http://www.w3.org/2000/svg" xmlns:xlink="http://www.w3.org/1999/xlink">
	<desc>
			Created with Pixso.
	</desc>
	<defs/>
	<path id="Vector" d="M10 20C4.48596 20 0 15.5137 0 10C0 4.48633 4.48596 0 10 0C15.514 0 20 4.48633 20 10C20 15.5137 15.514 20 10 20ZM18.4335 11.3691C18.1414 11.2764 15.7897 10.5752 13.113 11.0039C14.2302 14.0732 14.6848 16.5742 14.7723 17.0938C16.6887 15.7979 18.0529 13.7451 18.4335 11.3691ZM13.3365 17.876C13.2094 17.126 12.7135 14.5146 11.5143 11.3984C11.4955 11.4053 11.4768 11.4111 11.458 11.417C6.64026 13.0967 4.91077 16.4375 4.7572 16.752C5.95691 17.6865 7.38513 18.2842 8.89368 18.4824C10.4022 18.6797 11.9362 18.4707 13.3365 17.876ZM3.6543 15.7246C3.84778 15.3926 6.19202 11.5117 10.5972 10.0879C10.7085 10.0518 10.8207 10.0176 10.9337 9.98633C10.7192 9.50098 10.4858 9.01465 10.2413 8.53613C5.97571 9.81348 1.83655 9.75977 1.46277 9.75195C1.46021 9.83887 1.4585 9.92578 1.4585 10.0127C1.45679 12.123 2.23938 14.1592 3.6543 15.7246ZM1.63892 8.26367C2.02087 8.26855 5.54004 8.28418 9.5354 7.22266C8.12012 4.70703 6.59375 2.5918 6.36865 2.2832C3.979 3.41016 2.19275 5.61328 1.63892 8.26367ZM7.99841 1.70898C8.2345 2.02539 9.78577 4.1377 11.1855 6.70898C14.2227 5.57031 15.5085 3.84277 15.6622 3.62402C14.6338 2.70996 13.3997 2.05957 12.0653 1.72559C10.7308 1.39258 9.33557 1.38672 7.99841 1.70898ZM16.6117 4.61133C16.4316 4.85547 15.0004 6.69043 11.8422 7.97949C12.0409 8.38672 12.2314 8.7998 12.4089 9.2168C12.4717 9.36426 12.5331 9.51074 12.5929 9.65723C15.4351 9.2998 18.2589 9.87305 18.5405 9.93262C18.5242 7.99023 17.8435 6.1123 16.6117 4.61133Z" fill="#E94B88" fill-opacity="1.000000" fill-rule="evenodd"/>
</svg>
