<svg width="18.000000" height="18.000000" viewBox="0 0 18 18" fill="none" xmlns="http://www.w3.org/2000/svg" xmlns:xlink="http://www.w3.org/1999/xlink">
	<desc>
			Created with Pixso.
	</desc>
	<defs/>
	<path id="Vector" d="M16.6499 0L1.3501 0C0.629883 0 0 0.542969 0 1.2666L0 16.7334C0 17.457 0.629883 18 1.3501 18L16.6499 18C17.3701 18 18 17.457 18 16.7334L18 1.2666C18 0.632812 17.3701 0 16.6499 0ZM5.31006 15.4668L2.61011 15.4668L2.61011 6.87402L5.31006 6.87402L5.31006 15.4668ZM3.95996 5.6084C3.06006 5.6084 2.42993 4.88477 2.42993 4.07031C2.42993 3.25586 3.1499 2.53223 3.95996 2.53223C4.77002 2.53223 5.48999 3.25586 5.48999 4.07031C5.58008 4.97461 4.86011 5.6084 3.95996 5.6084ZM15.3 15.4668L12.6001 15.4668L12.6001 11.3066C12.6001 10.3115 12.6001 9.04492 11.25 9.04492C9.8999 9.04492 9.63013 10.1309 9.63013 11.3066L9.63013 15.5576L6.92993 15.5576L6.92993 6.96484L9.44995 6.96484L9.44995 8.14062C9.81006 7.41699 10.71 6.78418 11.97 6.78418C14.6699 6.78418 15.21 8.59277 15.21 10.8545L15.21 15.4668L15.3 15.4668Z" fill="#0077B5" fill-opacity="1.000000" fill-rule="nonzero"/>
</svg>
