<svg width="25.538574" height="32.000000" viewBox="0 0 25.5386 32" fill="none" xmlns="http://www.w3.org/2000/svg" xmlns:xlink="http://www.w3.org/1999/xlink">
	<desc>
			Created with Pixso.
	</desc>
	<defs/>
	<path id="Vector" d="M24.1196 23.1111L14.188 23.1111L14.188 30.2222L24.1196 30.2222L24.1196 23.1111ZM24.1196 1.77783L14.188 1.77783L14.188 16L24.1196 16L24.1196 1.77783ZM8.51294 16L1.4187 16L1.4187 30.2222L8.51294 30.2222L8.51294 16ZM8.51294 1.77783L1.4187 1.77783L1.4187 8.88892L8.51294 8.88892L8.51294 1.77783ZM14.188 0C13.4045 0 12.7693 0.795898 12.7693 1.77783L12.7693 16C12.7693 16.9819 13.4045 17.7778 14.188 17.7778L24.1196 17.7778C24.9033 17.7778 25.5386 16.9819 25.5386 16L25.5386 1.77783C25.5386 0.795898 24.9033 0 24.1196 0L14.188 0ZM14.188 21.3333C13.4045 21.3333 12.7693 22.1292 12.7693 23.1111L12.7693 30.2222C12.7693 31.2041 13.4045 32 14.188 32L24.1196 32C24.9033 32 25.5386 31.2041 25.5386 30.2222L25.5386 23.1111C25.5386 22.1292 24.9033 21.3333 24.1196 21.3333L14.188 21.3333ZM0 16C0 15.0181 0.635254 14.2222 1.4187 14.2222L8.51294 14.2222C9.29639 14.2222 9.93164 15.0181 9.93164 16L9.93164 30.2222C9.93164 31.2041 9.29639 32 8.51294 32L1.4187 32C0.635254 32 0 31.2041 0 30.2222L0 16ZM1.4187 0C0.635254 0 0 0.795898 0 1.77783L0 8.88892C0 9.87061 0.635254 10.6667 1.4187 10.6667L8.51294 10.6667C9.29639 10.6667 9.93164 9.87061 9.93164 8.88892L9.93164 1.77783C9.93164 0.795898 9.29639 0 8.51294 0L1.4187 0Z" fill="#5221E6" fill-opacity="1.000000" fill-rule="evenodd"/>
</svg>
