<svg width="20.000000" height="15.665039" viewBox="0 0 20 15.665" fill="none" xmlns="http://www.w3.org/2000/svg" xmlns:xlink="http://www.w3.org/1999/xlink">
	<desc>
			Created with Pixso.
	</desc>
	<defs/>
	<path id="Vector" d="M20 1.87207C19.3103 2.16797 18.5222 2.36426 17.6355 2.46289C18.4236 1.9707 19.1133 1.18262 19.4089 0.295898C18.6206 0.788086 17.7339 1.08398 16.8474 1.28125C16.1577 0.492188 15.074 0 13.8916 0C11.6255 0 9.85229 1.77344 9.85229 3.94043C9.85229 4.23633 9.85229 4.53223 9.95068 4.82715C6.60107 4.63086 3.64526 3.05469 1.57642 0.689453C1.18237 1.28125 0.985107 1.9707 0.985107 2.66016C0.985107 4.03906 1.6748 5.22168 2.75854 6.00977C2.06885 6.00977 1.47778 5.8125 0.886719 5.51758C0.886719 5.51758 0.886719 5.51758 0.886719 5.61621C0.886719 7.58594 2.26611 9.16211 4.13794 9.55664C3.84229 9.65527 3.44824 9.65527 3.0542 9.65527C2.75854 9.65527 2.56152 9.65527 2.26611 9.55664C2.75854 11.1328 4.23633 12.3154 6.00977 12.3154C4.63062 13.3994 2.85718 13.9902 0.985107 13.9902C0.689697 13.9902 0.295654 13.9902 0 13.8916C1.77344 15.0742 3.94092 15.665 6.20679 15.665C13.5962 15.665 17.7339 9.55664 17.7339 4.33496C17.7339 4.1377 17.7339 3.94043 17.7339 3.84277C18.8176 3.34961 19.5073 2.66016 20 1.87207Z" fill="#26A7DE" fill-opacity="1.000000" fill-rule="evenodd"/>
</svg>
