<svg width="18.000000" height="18.000000" viewBox="0 0 18 18" fill="none" xmlns="http://www.w3.org/2000/svg" xmlns:xlink="http://www.w3.org/1999/xlink">
	<desc>
			Created with Pixso.
	</desc>
	<defs/>
	<path id="Vector" d="M16.65 0L1.34998 0C0.630005 0 0 0.542969 0 1.2666L0 16.7334C0 17.457 0.630005 18 1.34998 18L16.65 18C17.37 18 18 17.457 18 16.7334L18 1.2666C18 0.632812 17.37 0 16.65 0ZM5.31 15.4668L2.60999 15.4668L2.60999 6.87402L5.31 6.87402L5.31 15.4668ZM3.96002 5.6084C3.06 5.6084 2.42999 4.88477 2.42999 4.07031C2.42999 3.25586 3.15002 2.53223 3.96002 2.53223C4.77002 2.53223 5.48999 3.25586 5.48999 4.07031C5.58002 4.97461 4.85999 5.6084 3.96002 5.6084ZM15.3 15.4668L12.6 15.4668L12.6 11.3066C12.6 10.3115 12.6 9.04492 11.25 9.04492C9.89996 9.04492 9.63 10.1309 9.63 11.3066L9.63 15.5576L6.92999 15.5576L6.92999 6.96484L9.45001 6.96484L9.45001 8.14062C9.81 7.41699 10.71 6.78418 11.97 6.78418C14.67 6.78418 15.21 8.59277 15.21 10.8545L15.21 15.4668L15.3 15.4668Z" fill="#0077B5" fill-opacity="1.000000" fill-rule="nonzero"/>
</svg>
