<svg width="20.000000" height="15.665039" viewBox="0 0 20 15.665" fill="none" xmlns="http://www.w3.org/2000/svg" xmlns:xlink="http://www.w3.org/1999/xlink">
	<desc>
			Created with Pixso.
	</desc>
	<defs/>
	<path id="Vector" d="M20 1.87207C19.3103 2.16797 18.5222 2.36426 17.6355 2.46289C18.4236 1.9707 19.1133 1.18262 19.4089 0.295898C18.6207 0.788086 17.734 1.08398 16.8473 1.28125C16.1576 0.492188 15.0739 0 13.8916 0C11.6256 0 9.85223 1.77344 9.85223 3.94043C9.85223 4.23633 9.85223 4.53223 9.95074 4.82715C6.60101 4.63086 3.64532 3.05469 1.57635 0.689453C1.18225 1.28125 0.985229 1.9707 0.985229 2.66016C0.985229 4.03906 1.67487 5.22168 2.75861 6.00977C2.06897 6.00977 1.47784 5.8125 0.886719 5.51758C0.886719 5.51758 0.886719 5.51758 0.886719 5.61621C0.886719 7.58594 2.26599 9.16211 4.13794 9.55664C3.84235 9.65527 3.4483 9.65527 3.0542 9.65527C2.75861 9.65527 2.56158 9.65527 2.26599 9.55664C2.75861 11.1328 4.23645 12.3154 6.00983 12.3154C4.63055 13.3994 2.85712 13.9902 0.985229 13.9902C0.689636 13.9902 0.295593 13.9902 0 13.8916C1.77338 15.0742 3.94086 15.665 6.20691 15.665C13.5961 15.665 17.734 9.55664 17.734 4.33496C17.734 4.1377 17.734 3.94043 17.734 3.84277C18.8177 3.34961 19.5074 2.66016 20 1.87207Z" fill="#26A7DE" fill-opacity="1.000000" fill-rule="evenodd"/>
</svg>
